<?xml version="1.0" encoding="utf-8"?>
<!-- Generator: Adobe Illustrator 25.2.1, SVG Export Plug-In . SVG Version: 6.00 Build 0)  -->
<svg version="1.1" id="Layer_1" xmlns="http://www.w3.org/2000/svg" xmlns:xlink="http://www.w3.org/1999/xlink" x="0px" y="0px"
	 viewBox="0 0 8192 8192" style="enable-background:new 0 0 8192 8192;" xml:space="preserve">
<style type="text/css">
	.st0{font-family:'HelveticaNeue-Bold';}
	.st1{font-size:3.2768px;}
	.st2{fill:#C2A552;}
</style>
<text transform="matrix(1 0 0 1 819.2 6563.4297)" class="st0 st1">Created by Icon Producer</text>
<text transform="matrix(1 0 0 1 819.2 6566.707)" class="st0 st1">from the Noun Project</text>
<g>
	<path class="st2" d="M1814,4600.9c-9.6-35.8-14.8-60.8-23-84.8c-52.1-153.4-111.8-304.6-155.8-460.2
		c-61.5-250.6-178.3-484.2-342-683.7c-91.5-91.4-191.4-174.1-298.3-246.9c-71.9-56.2-146.7-108.6-221.7-160.6
		c-87.1-49.9-169.7-107-247-170.9c-67.1-76.1-125.4-159.6-173.7-248.8c-7.9-12.6,4-49.3,18.2-60.7c19.2-11.3,42.7-12.4,62.8-2.7
		c195.4,134.9,389,272.4,582.6,409.9c43.9,33.7,90,64.3,138.1,91.7c-130.8-220.2-127.5-473.9-194.9-708.1
		c-6.8-37.8-7.3-76.5-1.5-114.5c11.2-177.3-77.4-321.2-156.8-467.5c-74.4-137.1-151.7-272.7-229.8-407.7
		c-29.4-37.1-23.1-91.1,14-120.4c6.6-5.3,14-9.5,21.9-12.6c60.6-37.4,92-4.4,120.3,44c77,131.9,154.7,263.4,234.9,399.9
		c91.7-227,180.2-447.3,269.9-667c14.3-35,25.9-82.2,53.5-97.9c39.9-20.7,86-26.2,129.7-15.4c16.5,4.6,31.9,75.4,20.6,106
		c-41.9,113.1-101.2,219.7-142.8,332.8c-89.9,256.9-141.4,525.6-152.9,797.6c-0.1,130.2,7.4,260.2,22.5,389.5
		c91.6-176.5,171.1-332.7,253.7-487.3c28.4-58.4,63.6-113.2,105-163.2c35.7-29,75.6-52.2,118.4-68.9c6,48.6,30.1,104.4,14.3,144.5
		c-39.1,82.6-83.4,162.6-132.6,239.6c-107.2,195-211,395.1-200.1,623.7c10.7,116.8,39.3,231.2,84.7,339.3
		c67.9,180.7,150,356,231,545.2c34.5-217,56.3-421.3,101.3-620.4c50.7-224,120.3-443.8,185.9-664.2c26.4-88.8,73.4-98.9,203.1-49.6
		c76.9,29.2,29.5,82.6,17.4,125.7c-26.7,95.5-56.8,190-85.5,284.9l22.2,11.9c40.4-47,77.6-97.3,122.1-140.1
		c41-39.4,86.5-93.7,148.1-25c67.7,75.5,61.9,121.4,0.8,189.9c-140.7,157.8-281.2,316.5-410,483.8c-44.1,66.7-73.1,142.2-85.2,221.2
		c-25.9,123.9-35.7,251.1-55,376.5c-30.5,197.5,70.9,359.6,137.2,531.8c53,137.6,99.5,277.6,149.6,416.4
		c10.2,22.2,21.7,43.8,34.3,64.8c33.1-120.7,55-225.2,90.6-324.8c69.2-194,141.7-387,221.9-576.6c33-78.1,84-150.6,193.3-135.9
		c75,10.2,91.6,33.7,58.2,104.5c-51.2,102-95.1,207.5-131.2,315.7c66.2-73,131.1-147.3,199.4-218.3c25.1-21.5,52.4-40.5,81.4-56.6
		c10.4,27.5,20.1,55.2,31.4,82.4c6.6,21.1,16.4,41,29.1,59.1c49.8,57.5,40,117-33.4,131c-122.1,27.1-233.4,89.5-320.2,179.5
		c-69.4,58-123.4,132.3-157,216.2c-87,296.1-160.8,591.8-108.8,911.9c34.9,251.2,44.6,505.3,29,758.5c-10.4,260-58.3,518.2-80.4,778
		c-0.9,100,3.9,200,14.2,299.5c5.8,38-0.6,76.9-18.2,111.1c-13.1,15.9-70.1,6.3-102.2-5.9c-132.6-50.2-144.2-66.5-121.7-204.5
		c25.5-156.3,75.7-310.1,86.2-466.9c14.5-217,81.7-440.5-11.8-652.4c-48.7-110.4-113.9-220.3-268.8-216.2
		c-131.7,3.5-263.8-7.2-395.7-10.2c-58.7-1.3-154.2-131.7-119.8-174.2c29.7-24.1,68.7-33.5,106.1-25.6
		c100.7,22.2,198.7,56.1,298.1,84.3c29.9,8.5,60.9,12.9,113.1,23.6c-165.2-160.5-314.4-304.7-462.7-449.9
		c-41.9-31.1-50.6-90.3-19.5-132.1c0.5-0.7,1-1.3,1.5-2c51.2-77.8,74.8-81.4,141.3-16.8c90.9,88.3,186.6,171.8,275.7,261.8
		c128.2,129.5,252.4,262.9,394.6,411.8c0.4-89.4-5.5-178.7-17.7-267.3c-36-171.6-87.3-339.9-125.3-511.1
		c-28.9-100.6-95.9-185.8-186.8-237.7c-247.9-176.1-497.3-350.1-748.3-521.9c-53-31.7-108.4-59.3-165.6-82.6
		c-81.9-39.1-165-75.7-245.3-117.8c-17.6-13-27.8-33.7-27.6-55.6c26.1-71.5,101.1-112.5,175.4-96c93.3,42.6,184.6,89.8,276.7,135
		l16.8-16.3c-100.5-124.6-199.1-250.8-302.7-372.8c-32.1-37.8-62.5-68.2-13.7-109.5c61.4-51.9,139.3-51.7,171.9-0.6
		c135.8,212.7,270.5,426.1,406,639c7,9.2,15.6,17,25.3,23.2c130,96.9,260.3,193.5,390.7,289.9
		C1782.4,4588.8,1797.9,4595.6,1814,4600.9z M1065.8,4223.1l-18.9,31.2l545.7,326.2l17.9-29.5L1065.8,4223.1z M1799,3129.1l28.7,8.5
		c57.3-194.8,114.7-389.5,172-584.3l-38.1-10.8C1907.4,2738,1853.2,2933.6,1799,3129.1z M1780.5,4176.4l-24.7,9.9
		c57.1,144.8,114.2,289.6,171.3,434.4l26.1-10.4C1895.7,4465.8,1838.1,4321.1,1780.5,4176.4z M2554.3,3940.6l-30.4-12.8
		l-177.1,432.5l15.9,6.5L2554.3,3940.6z M707.3,2813.8l17.1-21.8c-65-44.2-129.9-88.4-194.9-132.6l-16.8,24.7L707.3,2813.8z"/>
	<path class="st2" d="M3967.4,7519.9c-79.5,58.9-125.1,149.1-125.1,247.4c0,169.9,138.2,308.2,308.2,308.2
		c169.9,0,308.2-138.2,308.2-308.2c0-98.3-45.6-188.5-125.1-247.4c-16.3-12-25.5-31.3-24.6-51.6l21-516.3h-359.9l22,516.3
		C3992.9,7488.4,3983.6,7507.9,3967.4,7519.9z"/>
	<path class="st2" d="M3158.5,6905.4h1984c62.3,0,113.1-50.7,113.1-113.1s-50.7-113.1-113.1-113.1c-62.3,0-113.1,50.7-113.1,113.1
		c0,33.7-27.3,61-61,61h-358.7c-14.5,0-28.5-5.1-39.5-14.5L4150.5,6482l-419.6,356.8c-11,9.4-25,14.5-39.5,14.5h-358.7
		c-33.7,0-61-27.3-61-61c0-62.4-50.7-113.1-113.1-113.1s-113.1,50.7-113.1,113.1C3045.4,6854.6,3096.1,6905.4,3158.5,6905.4z"/>
	<path class="st2" d="M6378,4600.9c9.6-35.8,14.8-60.8,23-84.8c52.1-153.4,111.8-304.6,155.8-460.2
		c61.5-250.6,178.3-484.2,342-683.7c91.5-91.4,191.4-174.1,298.3-246.9c71.9-56.2,146.7-108.6,221.7-160.6
		c87.1-49.9,169.7-107,247-170.9c67.1-76.1,125.4-159.6,173.7-248.8c7.9-12.6-4-49.3-18.2-60.7c-19.2-11.3-42.7-12.4-62.8-2.7
		c-195.4,134.9-389,272.4-582.6,409.9c-43.9,33.7-90,64.3-138.1,91.7c130.8-220.2,127.5-473.9,194.9-708.1
		c6.8-37.8,7.3-76.5,1.5-114.5c-11.2-177.3,77.4-321.2,156.8-467.5c74.4-137.1,151.7-272.7,229.8-407.7
		c29.4-37.1,23.1-91.1-14-120.4c-6.6-5.3-14-9.5-21.9-12.6c-60.6-37.4-92-4.4-120.3,44c-77,131.9-154.7,263.4-234.9,399.9
		c-91.7-227-180.2-447.3-269.9-667c-14.3-35-25.9-82.2-53.5-97.9c-39.9-20.7-86-26.2-129.7-15.4c-16.5,4.6-31.9,75.4-20.6,106
		c41.9,113.1,101.2,219.7,142.8,332.8c89.9,256.9,141.4,525.6,152.9,797.6c0.1,130.2-7.4,260.2-22.5,389.5
		c-91.6-176.5-171.1-332.7-253.7-487.3c-28.4-58.4-63.6-113.2-105-163.2c-35.7-29-75.6-52.2-118.4-68.9
		c-6,48.6-30.1,104.4-14.3,144.5c39.1,82.6,83.4,162.6,132.6,239.6c107.2,195,211,395.1,200.1,623.7
		c-10.7,116.8-39.3,231.2-84.7,339.3c-67.9,180.7-150,356-231,545.2c-34.5-217-56.3-421.3-101.3-620.4
		c-50.7-224-120.3-443.8-185.9-664.2c-26.4-88.8-73.4-98.9-203.1-49.6c-76.9,29.2-29.5,82.6-17.4,125.7
		c26.7,95.5,56.8,190,85.5,284.9l-22.2,11.9c-40.4-47-77.6-97.3-122.1-140.1c-41-39.4-86.5-93.7-148.1-25
		c-67.7,75.5-61.9,121.4-0.8,189.9c140.7,157.8,281.2,316.5,410,483.8c44.1,66.7,73.1,142.2,85.2,221.2
		c25.9,123.9,35.7,251.1,55,376.5c30.5,197.5-70.9,359.6-137.2,531.8c-53,137.6-99.5,277.6-149.6,416.4
		c-10.2,22.2-21.7,43.8-34.3,64.8c-33.1-120.7-55-225.2-90.6-324.8c-69.2-194-141.7-387-221.9-576.6c-33-78.1-84-150.6-193.3-135.9
		c-75,10.2-91.6,33.7-58.2,104.5c51.2,102,95.1,207.5,131.2,315.7c-66.2-73-131.1-147.3-199.4-218.3c-25.1-21.5-52.4-40.5-81.4-56.6
		c-10.4,27.5-20.1,55.2-31.4,82.4c-6.6,21.1-16.4,41-29.1,59.1c-49.8,57.5-40,117,33.4,131c122.1,27.1,233.4,89.5,320.2,179.5
		c69.4,58,123.4,132.3,157,216.2c87,296.1,160.8,591.8,108.8,911.9c-34.9,251.2-44.6,505.3-29,758.5c10.4,260,58.3,518.2,80.4,778
		c0.9,100-3.9,200-14.2,299.5c-5.8,38,0.6,76.9,18.2,111.1c13.1,15.9,70.1,6.3,102.2-5.9c132.6-50.2,144.2-66.5,121.7-204.5
		c-25.5-156.3-75.7-310.1-86.2-466.9c-14.5-217-81.7-440.5,11.8-652.4c48.7-110.4,113.9-220.3,268.8-216.2
		c131.7,3.5,263.8-7.2,395.7-10.2c58.7-1.3,154.2-131.7,119.8-174.2c-29.7-24.1-68.7-33.5-106.1-25.6
		c-100.7,22.2-198.7,56.1-298.1,84.3c-29.9,8.5-60.9,12.9-113.1,23.6c165.2-160.5,314.4-304.7,462.7-449.9
		c41.9-31.1,50.6-90.3,19.5-132.1c-0.5-0.7-1-1.3-1.5-2c-51.2-77.8-74.8-81.4-141.3-16.8c-90.9,88.3-186.6,171.8-275.7,261.8
		c-128.2,129.5-252.4,262.9-394.6,411.8c-0.4-89.4,5.5-178.7,17.7-267.3c36-171.6,87.3-339.9,125.3-511.1
		c28.9-100.6,95.9-185.8,186.8-237.7c247.9-176.1,497.4-350.1,748.3-521.9c53-31.7,108.4-59.3,165.6-82.6
		c81.9-39.1,165-75.7,245.3-117.8c17.6-13,27.8-33.7,27.6-55.6c-26.1-71.5-101.1-112.5-175.4-96c-93.3,42.6-184.6,89.8-276.7,135
		l-16.8-16.3c100.5-124.6,199.1-250.8,302.7-372.8c32.1-37.8,62.5-68.2,13.7-109.5c-61.4-51.9-139.3-51.7-171.9-0.6
		c-135.8,212.7-270.5,426.1-406,639c-7,9.2-15.6,17-25.3,23.2c-130,96.9-260.3,193.5-390.7,289.9
		C6409.8,4588.8,6394.1,4595.6,6378,4600.9z M7126.4,4223.1l18.9,31.2l-545.7,326.2l-17.9-29.5L7126.4,4223.1z M6393,3129.1
		l-28.7,8.5c-57.3-194.8-114.7-389.5-172-584.3l38.1-10.8C6284.6,2738,6338.9,2933.6,6393,3129.1z M6411.5,4176.4l24.7,9.9
		c-57.1,144.8-114.2,289.6-171.3,434.4l-26.1-10.4C6296.4,4465.8,6354,4321.1,6411.5,4176.4z M5637.9,3940.6l30.4-12.8l177.1,432.5
		l-15.9,6.5L5637.9,3940.6z M7484.8,2813.8l-17.1-21.8c65-44.2,129.9-88.4,194.9-132.6l16.8,24.7L7484.8,2813.8z"/>
	<g>
		<path class="st2" d="M4150.1,428.6c24.3,0,47.9,4.7,70.1,14.1c8.3,3.5,16.3,7.7,24,12.4c-29.3-199.4-60.5-305.4-93.7-338.6
			c-33,33-63.9,138.8-93.1,337.8c7.2-4.4,14.8-8.2,22.6-11.5C4102.2,433.4,4125.8,428.6,4150.1,428.6z"/>
		<path class="st2" d="M4263,772.6c-9.8,40.3-16.5,93.1,11.3,151.8c6.9,14.6,15.8,29.1,26.5,43.4c-7-74-14.2-144.1-21.5-210.2
			C4274.1,763,4268.7,768,4263,772.6z"/>
		<path class="st2" d="M4037.2,772.8c-5.3-4.3-10.3-8.9-15.1-13.7c-7.1,65-14.1,134-21,206.8c10.1-13.7,18.4-27.6,25-41.5
			C4053.7,865.8,4047.1,813,4037.2,772.8z"/>
		<path class="st2" d="M4352.5,1606.9c0.1,0.1,0.2,0.2,0.3,0.3c-5.6-77.8-11.2-153.7-16.9-227.2c-21.9,11.6-45.3,20.2-69.9,25.6
			C4270.2,1442.6,4287.9,1555.5,4352.5,1606.9z"/>
		<path class="st2" d="M5665,845.4l0.5-3.5l-2.5-2.5c-6.3-6.3-13.8-9.5-22.2-9.5c-26.3,0-60.5,32.7-101.6,97.3
			c-27.1,42.6-50.8,89.5-61.7,115.3c-27.7-28.2-66.5-31.7-94.3-31.7c-21.4,0-43.6,2.4-65.1,4.7c-20.1,2.2-39.1,4.2-56.3,4.2h-9.8
			l3.2,9.3c25,73.2,51.8,120.7,86.8,154.1c40.8,38.9,93.7,57.8,161.7,57.8c2.1,0,4.2,0,6.3-0.1l21.7,88.1
			c-31.2-15.3-73.4-23.9-118.5-23.9c-38.9,0-75.4,6.5-102.9,18.2l-5.3,2.2l1.2,5.6c12.2,58.6,41.4,111.9,82.4,150.2
			c44,41.1,98.3,62.8,157.1,62.8c2.3,0,4.6,0,6.9-0.1c-1.4,12.1-5.6,36.6-16.7,61.4c-20.3,45.3-53.5,70.1-98.6,73.6
			c-5.1,0.4-10.3,0.6-15.5,0.6c-54.5,0-104.6-21.4-137.1-39.4c-25.7-14.3-44.7-28.7-53.3-35.6c68.4-91.3,48.3-203.5,30.6-302.7
			l-0.9-5.2l-5.2-0.6c-1.7-0.2-3.5-0.3-5.2-0.3c-44.2,0-76.4,59.1-102.2,106.6c-5.3,9.8-10.5,19.2-15.3,27.5
			c-7-46.1-24.5-96.6-49.1-141.2c-22.2-40.2-60.2-93.8-115-121.1l-4.4-2.2l-3.6,3.4c-28,26.9-61.5,81.4-85.2,139
			c-12.3,29.8-29.8,79.6-30.2,121.9c-38.3-55.4-112.8-132-156.1-144.6l-4.3-1.2l-2.9,3.4c-72,82.4-24.3,225.3,30.6,333.8
			c-29.6,6.5-129.2,26.8-219.5,26.8c-3.4,0-6.8,0-10.2-0.1c-44.7,0.1-94.7,4.2-124.6-11.1c-104.6-53.5-115.6-250.5-115.6-250.5
			c131.2-22.3,222.6-127.7,243.8-254.7c-261.2-141.4-269.5-271.8-245.2-366.6c39.8-30.3,74.6-82.1,74.6-135.9
			c0-91.8-74.3-166.1-166.1-166.1c-91.8,0-165.7,74.4-165.7,166.1c0,53.8,34.4,105.6,74.2,135.9c24.3,94.8,16.4,224.8-245.2,366.6
			c21.2,127,112.6,231.3,243.8,253.7c0,0-11,198-115.6,251.5c-32.1,16.4-86.2,11.1-134.5,11.1c0,0,0,0,0,0c0,0,0,0,0,0
			c-12.3,0-20.7-0.2-25.7-0.5c-82.7-3.2-166.9-20.4-193.7-26.3c54.9-108.4,102.6-251.4,30.6-333.8l-2.9-3.4l-4.3,1.2
			c-43.3,12.5-117.8,89.2-156.1,144.6c-0.4-42.3-17.9-92-30.2-121.9c-23.7-57.5-57.2-112.1-85.2-139l-3.6-3.4l-4.4,2.2
			c-54.9,27.3-92.8,80.9-115,121.1c-24.7,44.6-42.1,95.1-49.1,141.2c-4.9-8.2-10-17.7-15.3-27.5c-25.8-47.5-58-106.6-102.2-106.6
			c-1.7,0-3.5,0.1-5.2,0.3l-5.2,0.6l-0.9,5.2c-17.7,99.2-37.8,211.4,30.6,302.7c-8.5,6.9-27.5,21.3-53.2,35.6
			c-58.7,32.6-107,39.4-137.2,39.4c-5.2,0-10.5-0.2-15.6-0.6c-45.1-3.5-78.2-28.3-98.6-73.6c-11.1-24.8-15.2-49.4-16.7-61.4
			c2.3,0.1,4.6,0.1,6.9,0.1c58.8,0,113.1-21.7,157.1-62.8c40.9-38.3,70.2-91.6,82.4-150.2l1.2-5.6l-5.3-2.2
			c-27.5-11.7-64-18.2-102.9-18.2c-45.2,0-87.3,8.6-118.5,23.9l21.7-88.1c2.1,0,4.2,0.1,6.3,0.1c68.1,0,121-18.9,161.7-57.8
			c35-33.4,61.8-80.9,86.8-154.1l3.2-9.3h-9.8c-17.2,0-36.2-2-56.3-4.2c-21.5-2.3-43.6-4.7-65.1-4.7c-27.8,0-66.7,3.5-94.3,31.7
			c-10.8-25.8-34.5-72.7-61.7-115.3c-41.1-64.6-75.3-97.3-101.6-97.3c-8.4,0-15.9,3.2-22.2,9.5l-2.5,2.5l0.5,3.5
			c7.1,46.1,16.1,89.4,24.7,131.3c30,144.8,56,269.8-15.5,423.5v0.1c-1.4,3.1-3.6,8.2,0.3,213.5c2.2,113.2,5.5,248,7.7,337.2
			c1.3,54.3,2.3,93.6,2.3,99.3c0,22.7,20.4,42.3,62.2,59.8c35.6,14.9,88,28.6,155.5,40.7c114.6,20.5,275.5,36.9,478.1,48.7
			c197.2,11.5,399.5,16.8,557.9,19.2c-95.6,1583.1-168.1,3620.9-232.3,4487.1l0.1,112.5l434.2-369.2c22.8-19.4,56.3-19.4,79,0
			l434.2,369.1v-117c-64.1-863.6-136.1-2900-231.6-4482.5c158.2-2.4,360.1-7.7,556.8-19.2c202.7-11.8,363.5-28.2,478.1-48.7
			c67.5-12.1,119.9-25.8,155.5-40.7c41.9-17.6,62.2-37.1,62.2-59.8c0-5.7,1-45,2.3-99.3c2.2-89.2,5.5-224,7.7-337.2
			c4-205.3,1.7-210.4,0.3-213.5v-0.1c-71.4-153.6-45.5-278.7-15.5-423.5C5648.9,934.9,5657.9,891.5,5665,845.4z M4133.2,5948.9
			l3-3311.6h28l3,3311.6H4133.2z M5501.8,2068.4c-36.3,6.5-88.2,12.9-154.2,19c-113.1,10.4-268.2,20.1-461.1,28.7
			c-180.2,8.1-361,13.8-499.1,17.4l-9.8-121.3c0,0-205-7.9-227.4-7.9c-22.1,0-222.6,7.8-226.2,7.9c-3.3,51.5-6.5,68.5-9.8,121.1
			c-138.1-3.5-319.4-9.2-500-17.3c-192.8-8.6-347.9-18.3-461-28.7c-65.9-6.1-117.8-12.5-154.1-19c-48.1-8.6-58.6-15.7-60.8-18
			c2.2-2.3,12.6-9.4,60.7-18.1c36.3-6.5,88.1-13,154.1-19.1c113-10.5,268.1-20.1,461-28.8c185.1-8.3,371.1-14.1,510.6-17.7
			c0,0,194.8-11.3,225.6-11.3c24.1,0,226.6,11.3,226.6,11.3c139.4,3.6,325,9.7,509.7,18c192.9,8.7,348.1,18.3,461.1,28.8
			c66,6.1,117.8,12.5,154.1,19.1c48.1,8.7,58.5,15.8,60.7,18.1C5560.5,2052.5,5550,2059.6,5501.8,2068.4z"/>
		<path class="st2" d="M3983.8,1565.5c13.3-20.8,24.5-46.3,33.3-75.7c10.5-35.1,15.1-67.5,17-84.4c-24-5.2-47-13.6-68.5-24.9
			c-5.7,73-11.2,148.2-16.7,225.3C3961.8,1595.4,3973.5,1581.9,3983.8,1565.5z"/>
	</g>
</g>
</svg>
